# xmcd CD database file
#
# Track frame offsets:
#	150
#	18110
#	32930
#	58625
#	79160
#	97375
#	116585
#	133265
#	153435
#	171370
#	189970
#	208585
#
# Disc length: 3024 seconds
#
# Revision: 0
# Processed by: cddbd v1.5.2PL0 Copyright (c) Steve Scherf et al.
# Submitted via: CD2WAV32(JP) R3.22
#
DISCID=a50bce0c
DTITLE=松崎しげる - スーパー・ベスト
DYEAR=2010
DGENRE=JPop
TTITLE0=01 愛のメモリー
TTITLE1=02 黄色い麦わら帽子
TTITLE2=03 Overture ～ Sailing Love 「MATSU FOR SALE」
TTITLE3=04 素晴らしい朝
TTITLE4=05 悲しみだけを残して
TTITLE5=06 こわれたドアー
TTITLE6=07 俺たちの朝
TTITLE7=08 真夜中のエレベーター
TTITLE8=09 俺の愛し方
TTITLE9=10 ワンダフル・モーメント
TTITLE10=11 マイ・ラブ
TTITLE11=12 I Gave You My Love 愛の静けさ
EXTD=
EXTT0=
EXTT1=
EXTT2=
EXTT3=
EXTT4=
EXTT5=
EXTT6=
EXTT7=
EXTT8=
EXTT9=
EXTT10=
EXTT11=
PLAYORDER=
